<svg width="79" height="49" viewBox="0 0 79 49" fill="none" xmlns="http://www.w3.org/2000/svg">
<g id="Front1">
<path id="Vector" d="M79 45.6804V3.31957C79 1.76236 77.7424 0.5 76.1911 0.5L2.80891 0.5C1.2576 0.5 3.05176e-05 1.76236 3.05176e-05 3.31957V45.6804C3.05176e-05 47.2376 1.2576 48.5 2.80891 48.5L76.1911 48.5C77.7424 48.5 79 47.2376 79 45.6804Z" fill="#F6F6F6"/>
<path id="Vector_2" d="M76.1911 0.500005H2.81405C2.44475 0.499323 2.07893 0.571752 1.73755 0.713143C1.39616 0.854535 1.0859 1.06211 0.824524 1.324C0.563147 1.58589 0.355784 1.89695 0.214301 2.23937C0.0728185 2.5818 -6.23954e-07 2.94886 0 3.31957V14.7689H79V3.33512C79.002 2.96354 78.9309 2.59522 78.7906 2.25134C78.6504 1.90746 78.4438 1.59479 78.1827 1.33132C77.9217 1.06785 77.6114 0.858777 77.2696 0.716109C76.9278 0.573441 76.5612 0.499999 76.1911 0.500005Z" fill="#DDDDDD"/>
<g id="Group 1707478529">
<path id="Vector_3" d="M27.4589 20.8906H9.76396C8.99686 20.8906 8.375 21.5148 8.375 22.2849V40.0471C8.375 40.8171 8.99686 41.4413 9.76396 41.4413H27.4589C28.226 41.4413 28.8479 40.8171 28.8479 40.0471V22.2849C28.8479 21.5148 28.226 20.8906 27.4589 20.8906Z" fill="#F6F6F6"/>
<path id="Vector_4" d="M18.596 34.067C19.5572 34.068 20.4971 33.7828 21.2968 33.2475C22.0965 32.7122 22.72 31.9509 23.0886 31.0598C23.4571 30.1686 23.5541 29.1878 23.3672 28.2414C23.1803 27.295 22.7179 26.4255 22.0386 25.7428C21.3593 25.0602 20.4936 24.5952 19.551 24.4066C18.6083 24.218 17.6311 24.3143 16.743 24.6833C15.8549 25.0523 15.0957 25.6774 14.5616 26.4795C14.0275 27.2817 13.7424 28.2249 13.7424 29.1897C13.7417 29.83 13.8668 30.4641 14.1104 31.0558C14.354 31.6475 14.7114 32.1852 15.1621 32.6381C15.6129 33.0911 16.1482 33.4504 16.7374 33.6956C17.3266 33.9408 17.9582 34.067 18.596 34.067ZM21.2861 34.067C20.4641 34.5258 19.5391 34.7666 18.5986 34.7666C17.658 34.7666 16.733 34.5258 15.911 34.067C14.5294 34.6077 13.3427 35.5545 12.5061 36.7836C11.6696 38.0127 11.2222 39.4667 11.2227 40.9552V41.4424H25.9745V40.9604C25.9743 39.4734 25.5279 38.0209 24.6935 36.7922C23.8591 35.5636 22.6753 34.6157 21.2964 34.0721L21.2861 34.067Z" fill="#DDDDDD"/>
<path id="Vector_5" d="M71.9992 21.8828H36.4492V22.9194H71.9992V21.8828Z" fill="#DDDDDD"/>
<path id="Vector_6" d="M71.9992 26.2578H36.4492V27.2944H71.9992V26.2578Z" fill="#DDDDDD"/>
<path id="Vector_7" d="M71.9992 30.6484H36.4492V31.685H71.9992V30.6484Z" fill="#DDDDDD"/>
<path id="Vector_8" d="M71.9992 35.0234H36.4492V36.06H71.9992V35.0234Z" fill="#DDDDDD"/>
<path id="Vector_9" d="M71.9992 39.4062H36.4492V40.4429H71.9992V39.4062Z" fill="#DDDDDD"/>
</g>
</g>
</svg>
