<svg width="49" height="79" viewBox="0 0 49 79" fill="none" xmlns="http://www.w3.org/2000/svg">
<g id="Front1">
<path id="Vector" d="M45.6726 0.0625H3.31175C1.75455 0.0625 0.492188 1.31902 0.492188 2.86901V76.1893C0.492188 77.7393 1.75455 78.9958 3.31175 78.9958H45.6726C47.2298 78.9958 48.4922 77.7393 48.4922 76.1893V2.86901C48.4922 1.31902 47.2298 0.0625 45.6726 0.0625Z" fill="#F6F6F6"/>
<path id="Vector_2" d="M46.7855 0.0625046H2.20199C1.9776 0.0618424 1.75534 0.13223 1.54791 0.269635C1.34049 0.407041 1.15197 0.608768 0.993164 0.863274C0.834353 1.11778 0.70836 1.42007 0.622396 1.75285C0.536432 2.08562 0.492187 2.44234 0.492188 2.80259V13.9292H48.4922V2.8177C48.4934 2.4566 48.4502 2.09866 48.365 1.76447C48.2797 1.43028 48.1542 1.12643 47.9956 0.870391C47.837 0.614348 47.6485 0.411164 47.4408 0.272518C47.2331 0.133871 47.0104 0.0624991 46.7855 0.0625046Z" fill="#DDDDDD"/>
<g id="Group 1707478545">
<path id="Vector_3" d="M33.4846 20.8125H15.7224C14.9523 20.8125 14.3281 21.4343 14.3281 22.2014V39.8964C14.3281 40.6635 14.9523 41.2854 15.7224 41.2854H33.4846C34.2546 41.2854 34.8788 40.6635 34.8788 39.8964V22.2014C34.8788 21.4343 34.2546 20.8125 33.4846 20.8125Z" fill="#F6F6F6"/>
<path id="Vector_4" d="M24.5928 33.9285C25.5576 33.9295 26.5011 33.6454 27.3038 33.1121C28.1066 32.5788 28.7325 31.8204 29.1024 30.9326C29.4724 30.0449 29.5697 29.0678 29.3821 28.125C29.1945 27.1821 28.7304 26.3159 28.0485 25.6359C27.3666 24.9558 26.4976 24.4926 25.5514 24.3047C24.6051 24.1168 23.6242 24.2127 22.7327 24.5803C21.8412 24.9479 21.0792 25.5706 20.543 26.3698C20.0069 27.1689 19.7207 28.1085 19.7207 29.0697C19.72 29.7075 19.8456 30.3392 20.0901 30.9287C20.3346 31.5181 20.6934 32.0538 21.1459 32.505C21.5984 32.9563 22.1357 33.3143 22.7271 33.5585C23.3186 33.8027 23.9525 33.9285 24.5928 33.9285ZM27.2931 33.9285C26.468 34.3855 25.5395 34.6254 24.5954 34.6254C23.6512 34.6254 22.7227 34.3855 21.8976 33.9285C20.5107 34.4671 19.3195 35.4104 18.4797 36.6348C17.64 37.8592 17.191 39.3077 17.1914 40.7906V41.276H31.9993V40.7958C31.9991 39.3144 31.551 37.8674 30.7135 36.6434C29.8759 35.4194 28.6876 34.4751 27.3035 33.9336L27.2931 33.9285Z" fill="#DDDDDD"/>
</g>
<g id="Group 1707478544">
<path id="Vector_5" d="M42.5797 49.1172H6.89453V50.1499H42.5797V49.1172Z" fill="#DDDDDD"/>
<path id="Vector_6" d="M42.5797 53.4922H6.89453V54.5249H42.5797V53.4922Z" fill="#DDDDDD"/>
<path id="Vector_7" d="M42.5797 57.8594H6.89453V58.8921H42.5797V57.8594Z" fill="#DDDDDD"/>
<path id="Vector_8" d="M42.5797 62.2188H6.89453V63.2514H42.5797V62.2188Z" fill="#DDDDDD"/>
<path id="Vector_9" d="M42.5797 66.5859H6.89453V67.6186H42.5797V66.5859Z" fill="#DDDDDD"/>
</g>
</g>
</svg>
