<svg width="16" height="16" viewBox="0 0 16 16" fill="none" xmlns="http://www.w3.org/2000/svg">
<rect width="16" height="16" rx="8" fill="#FF0000"/>
<path d="M8.00015 8.49406L5.47995 11.0143C5.41072 11.0835 5.32835 11.1179 5.23284 11.1174C5.13733 11.1169 5.05416 11.0812 4.98332 11.0104C4.91506 10.9396 4.88156 10.8579 4.88285 10.7652C4.88413 10.6726 4.91891 10.5922 4.98717 10.5239L7.50352 7.99744L4.98717 5.47099C4.92211 5.40593 4.88877 5.32629 4.88717 5.23205C4.88557 5.13783 4.91891 5.0553 4.98717 4.98446C5.05544 4.91363 5.13653 4.87717 5.23044 4.87509C5.32434 4.87301 5.40751 4.90738 5.47995 4.97821L8.00015 7.50081L10.5227 4.97821C10.5904 4.91059 10.6719 4.87701 10.7675 4.87749C10.863 4.87797 10.9469 4.91363 11.0194 4.98446C11.086 5.0553 11.1187 5.13703 11.1174 5.22965C11.1162 5.32228 11.0814 5.40272 11.0131 5.47099L8.49677 7.99744L11.0131 10.5239C11.0782 10.5889 11.1115 10.6686 11.1131 10.7628C11.1147 10.8571 11.0814 10.9396 11.0131 11.0104C10.9449 11.0812 10.8638 11.1177 10.7699 11.1198C10.676 11.1219 10.5936 11.0867 10.5227 11.0143L8.00015 8.49406Z" fill="white"/>
</svg>
