<svg width="61" height="60" viewBox="0 0 61 60" fill="none" xmlns="http://www.w3.org/2000/svg">
<rect x="0.5" width="60" height="60" rx="30" fill="#2D65F2" fill-opacity="0.06"/>
<path d="M15.5 18.9478V15.9753C15.5 15.2482 15.7569 14.6265 16.2706 14.1103C16.7844 13.5941 17.4073 13.3359 18.1394 13.3359H21.1119C21.4068 13.3359 21.6602 13.4419 21.8721 13.6539C22.084 13.8659 22.1899 14.1219 22.1899 14.4219C22.1899 14.7219 22.084 14.9765 21.8721 15.1857C21.6602 15.3949 21.4068 15.4994 21.1119 15.4994H18.1394C18.0006 15.4994 17.8866 15.5453 17.7974 15.637C17.7081 15.7287 17.6635 15.8415 17.6635 15.9753V18.9478C17.6635 19.2477 17.5575 19.5035 17.3455 19.7154C17.1336 19.9273 16.8776 20.0333 16.5775 20.0333C16.2775 20.0333 16.0229 19.9273 15.8137 19.7154C15.6046 19.5035 15.5 19.2477 15.5 18.9478ZM43.3365 18.9478V15.9753C43.3365 15.8415 43.2906 15.7287 43.1989 15.637C43.1072 15.5453 42.9944 15.4994 42.8606 15.4994H39.8881C39.5883 15.4994 39.3324 15.3947 39.1205 15.1852C38.9086 14.9757 38.8027 14.7209 38.8027 14.4209C38.8027 14.1209 38.9086 13.865 39.1205 13.6534C39.3324 13.4418 39.5883 13.3359 39.8881 13.3359H42.8606C43.5878 13.3359 44.2094 13.5941 44.7256 14.1103C45.2419 14.6265 45.5 15.2482 45.5 15.9753V18.9478C45.5 19.2477 45.394 19.5035 45.182 19.7154C44.97 19.9273 44.714 20.0333 44.414 20.0333C44.114 20.0333 43.8594 19.9273 43.6502 19.7154C43.4411 19.5035 43.3365 19.2477 43.3365 18.9478ZM15.5 43.7895V40.817C15.5 40.5221 15.6048 40.2687 15.8143 40.0568C16.0238 39.8449 16.2785 39.739 16.5785 39.739C16.8786 39.739 17.1344 39.8449 17.3461 40.0568C17.5577 40.2687 17.6635 40.5221 17.6635 40.817V43.7895C17.6635 43.9283 17.7081 44.0423 17.7974 44.1315C17.8866 44.2207 18.0006 44.2654 18.1394 44.2654H21.1119C21.4068 44.2654 21.6602 44.3714 21.8721 44.5834C22.084 44.7953 22.1899 45.0513 22.1899 45.3513C22.1899 45.6514 22.084 45.906 21.8721 46.1151C21.6602 46.3243 21.4068 46.4289 21.1119 46.4289H18.1394C17.4073 46.4289 16.7844 46.172 16.2706 45.6582C15.7569 45.1445 15.5 44.5216 15.5 43.7895ZM42.8606 46.4289H39.8881C39.5883 46.4289 39.3324 46.3241 39.1205 46.1146C38.9086 45.9051 38.8027 45.6503 38.8027 45.3503C38.8027 45.0503 38.9086 44.7945 39.1205 44.5828C39.3324 44.3712 39.5883 44.2654 39.8881 44.2654H42.8606C42.9944 44.2654 43.1072 44.2207 43.1989 44.1315C43.2906 44.0423 43.3365 43.9283 43.3365 43.7895V40.817C43.3365 40.5221 43.4412 40.2687 43.6508 40.0568C43.8603 39.8449 44.115 39.739 44.415 39.739C44.7151 39.739 44.9709 39.8449 45.1825 40.0568C45.3942 40.2687 45.5 40.5221 45.5 40.817V43.7895C45.5 44.5216 45.2419 45.1445 44.7256 45.6582C44.2094 46.172 43.5878 46.4289 42.8606 46.4289Z" fill="#2D65F2"/>
<path d="M30.5 29.1732C28.9958 29.1732 27.7166 28.6462 26.6625 27.5921C25.6084 26.538 25.0814 25.2588 25.0814 23.7546C25.0814 22.2503 25.6084 20.9712 26.6625 19.9171C27.7166 18.863 28.9958 18.3359 30.5 18.3359C32.0042 18.3359 33.2834 18.863 34.3375 19.9171C35.3916 20.9712 35.9187 22.2503 35.9187 23.7546C35.9187 25.2588 35.3916 26.538 34.3375 27.5921C33.2834 28.6462 32.0042 29.1732 30.5 29.1732ZM18.8333 38.602V37.5112C18.8333 36.7509 19.0366 36.0522 19.4433 35.4151C19.8499 34.778 20.4032 34.2859 21.1032 33.9388C22.6612 33.1872 24.2231 32.6203 25.789 32.2379C27.3549 31.8555 28.9253 31.6642 30.5003 31.6642C32.0752 31.6642 33.6461 31.8553 35.213 32.2375C36.78 32.6197 38.3419 33.1866 39.8986 33.9382C40.5981 34.2854 41.1509 34.7775 41.5572 35.4147C41.9635 36.052 42.1667 36.7507 42.1667 37.5111V38.602C42.1667 39.2318 41.9473 39.7661 41.5085 40.2048C41.0698 40.6436 40.5355 40.8629 39.9057 40.8629H21.0943C20.4645 40.8629 19.9302 40.6436 19.4915 40.2048C19.0527 39.7661 18.8333 39.2318 18.8333 38.602Z" fill="#2D65F2"/>
</svg>
