<svg width="16" height="16" viewBox="0 0 16 16" fill="none" xmlns="http://www.w3.org/2000/svg">
<rect width="16" height="16" rx="8" fill="#4DB429"/>
<path d="M6.78732 9.7694L11.0662 5.49055C11.1364 5.42036 11.219 5.38446 11.314 5.38286C11.409 5.38126 11.4932 5.41715 11.5666 5.49055C11.6384 5.56394 11.6743 5.64736 11.6743 5.74079C11.6743 5.83421 11.6384 5.91682 11.5666 5.98861L7.08972 10.4655C7.0019 10.5534 6.9011 10.5973 6.78732 10.5973C6.67354 10.5973 6.57354 10.5534 6.48732 10.4655L4.44021 8.41843C4.36842 8.34824 4.33236 8.26602 4.33203 8.17179C4.33172 8.07756 4.36825 7.99376 4.44165 7.92036C4.51505 7.84696 4.59846 7.81026 4.69188 7.81026C4.78531 7.81026 4.86872 7.84696 4.94212 7.92036L6.78732 9.7694Z" fill="white"/>
</svg>
