<svg width="61" height="60" viewBox="0 0 61 60" fill="none" xmlns="http://www.w3.org/2000/svg">
<rect x="0.5" width="60" height="60" rx="30" fill="#2D65F2" fill-opacity="0.06"/>
<path d="M28.7867 31.8432L26.0687 29.1301C25.8379 28.9047 25.5642 28.7893 25.2474 28.7839C24.9307 28.7786 24.6526 28.8956 24.4133 29.1349C24.1718 29.3763 24.0511 29.6536 24.0511 29.9666C24.0511 30.2796 24.1718 30.5542 24.4133 30.7903L27.7867 34.1637C28.0741 34.4564 28.4074 34.6028 28.7867 34.6028C29.1659 34.6028 29.5019 34.4564 29.7947 34.1637L36.6008 27.3576C36.8348 27.1236 36.9523 26.8504 36.9533 26.5379C36.9544 26.2254 36.8369 25.9468 36.6008 25.7022C36.3561 25.4629 36.0781 25.3411 35.7667 25.3368C35.4552 25.3326 35.1772 25.4527 34.9325 25.6974L28.7867 31.8432ZM24.6874 44.981L22.4165 41.1605L18.0912 40.2374C17.7397 40.1647 17.4579 39.9807 17.2459 39.6853C17.0338 39.3899 16.9502 39.0595 16.9951 38.6941L17.4214 34.2775L14.5111 30.9329C14.2771 30.6733 14.1602 30.3624 14.1602 30.0002C14.1602 29.6381 14.2771 29.3245 14.5111 29.0595L17.4214 25.723L16.9951 21.3064C16.9502 20.941 17.0338 20.6106 17.2459 20.3152C17.4579 20.0198 17.7397 19.8331 18.0912 19.7551L22.4165 18.84L24.6874 15.0115C24.8797 14.7049 25.1398 14.4931 25.4678 14.3761C25.7958 14.2591 26.127 14.2717 26.4614 14.4138L30.503 16.151L34.5447 14.4138C34.8791 14.2717 35.2103 14.2591 35.5383 14.3761C35.8663 14.4931 36.1264 14.7049 36.3187 15.0115L38.5895 18.84L42.9148 19.7551C43.2663 19.8331 43.5481 20.0198 43.7602 20.3152C43.9723 20.6106 44.0558 20.941 44.011 21.3064L43.5847 25.723L46.5029 29.0595C46.7316 29.3245 46.8459 29.6381 46.8459 30.0002C46.8459 30.3624 46.7316 30.6733 46.5029 30.9329L43.5847 34.2775L44.011 38.6941C44.0558 39.0595 43.9723 39.3899 43.7602 39.6853C43.5481 39.9807 43.2663 40.1647 42.9148 40.2374L38.5895 41.1605L36.3187 44.981C36.1264 45.2929 35.8663 45.5074 35.5383 45.6244C35.2103 45.7414 34.8791 45.7288 34.5447 45.5867L30.503 43.8495L26.4614 45.5867C26.127 45.7288 25.7958 45.7414 25.4678 45.6244C25.1398 45.5074 24.8797 45.2929 24.6874 44.981Z" fill="#4DB429"/>
</svg>
