<svg width="61" height="60" viewBox="0 0 61 60" fill="none" xmlns="http://www.w3.org/2000/svg">
<rect x="0.5" width="60" height="60" rx="30" fill="#FF0000" fill-opacity="0.06"/>
<path fill-rule="evenodd" clip-rule="evenodd" d="M30.5 45.5078C39.0604 45.5078 46 38.5682 46 30.0078C46 21.4474 39.0604 14.5078 30.5 14.5078C21.9396 14.5078 15 21.4474 15 30.0078C15 38.5682 21.9396 45.5078 30.5 45.5078ZM24.4332 22.2969C23.9792 21.8429 23.2431 21.8429 22.7891 22.2969C22.3352 22.7509 22.3352 23.487 22.7891 23.9409L37.4027 38.5545C37.8567 39.0085 38.5927 39.0085 39.0467 38.5545C39.5007 38.1005 39.5007 37.3645 39.0467 36.9105L24.4332 22.2969Z" fill="#FF0000"/>
</svg>
